<svg width="16" height="16" viewBox="0 0 16 16" fill="none" xmlns="http://www.w3.org/2000/svg">
<path d="M13.46 9.37333L12.7067 8.12C12.54 7.84667 12.3934 7.32 12.3934 7V5.75333C12.3934 3.33334 10.4267 1.36667 8.01337 1.36667C5.59337 1.37334 3.6267 3.33334 3.6267 5.75333V6.99333C3.6267 7.31333 3.48003 7.84 3.32003 8.11333L2.5667 9.36667C2.28003 9.85333 2.21337 10.4067 2.39337 10.8867C2.57337 11.3733 2.98003 11.76 3.51337 11.9333C4.23337 12.1733 4.96003 12.3467 5.70003 12.4733C5.77337 12.4867 5.8467 12.4933 5.92003 12.5067C6.01337 12.52 6.11337 12.5333 6.21337 12.5467C6.3867 12.5733 6.56003 12.5933 6.74003 12.6067C7.16003 12.6467 7.5867 12.6667 8.01337 12.6667C8.43337 12.6667 8.85337 12.6467 9.2667 12.6067C9.42003 12.5933 9.57337 12.58 9.72003 12.56C9.84003 12.5467 9.96003 12.5333 10.08 12.5133C10.1534 12.5067 10.2267 12.4933 10.3 12.48C11.0467 12.36 11.7867 12.1733 12.5067 11.9333C13.02 11.76 13.4134 11.3733 13.6 10.88C13.7867 10.38 13.7334 9.83333 13.46 9.37333ZM8.50003 6.66667C8.50003 6.94667 8.27337 7.17334 7.99337 7.17334C7.71337 7.17334 7.4867 6.94667 7.4867 6.66667V4.6C7.4867 4.32 7.71337 4.09334 7.99337 4.09334C8.27337 4.09334 8.50003 4.32 8.50003 4.6V6.66667Z" fill="#267FFF"/>
<path d="M9.88666 13.34C9.60666 14.1133 8.86666 14.6667 8 14.6667C7.47333 14.6667 6.95333 14.4533 6.58666 14.0733C6.37333 13.8733 6.21333 13.6067 6.12 13.3333C6.20666 13.3467 6.29333 13.3533 6.38666 13.3667C6.53999 13.3867 6.7 13.4067 6.86 13.42C7.24 13.4533 7.62666 13.4733 8.01333 13.4733C8.39333 13.4733 8.77333 13.4533 9.14666 13.42C9.28666 13.4067 9.42666 13.4 9.56 13.38C9.66666 13.3667 9.77333 13.3533 9.88666 13.34Z" fill="#267FFF"/>
</svg>
