<svg width="20" height="25" viewBox="0 0 20 25" fill="none" xmlns="http://www.w3.org/2000/svg">
<path d="M10 18.8333C10.6188 18.8333 11.2123 18.5875 11.6499 18.1499C12.0875 17.7123 12.3333 17.1188 12.3333 16.5C12.3333 15.205 11.2833 14.1667 10 14.1667C9.38116 14.1667 8.78767 14.4125 8.35009 14.8501C7.9125 15.2877 7.66667 15.8812 7.66667 16.5C7.66667 17.1188 7.9125 17.7123 8.35009 18.1499C8.78767 18.5875 9.38116 18.8333 10 18.8333ZM17 8.33333C17.6188 8.33333 18.2123 8.57917 18.6499 9.01675C19.0875 9.45434 19.3333 10.0478 19.3333 10.6667V22.3333C19.3333 22.9522 19.0875 23.5457 18.6499 23.9833C18.2123 24.4208 17.6188 24.6667 17 24.6667H3C2.38117 24.6667 1.78767 24.4208 1.35009 23.9833C0.912504 23.5457 0.666672 22.9522 0.666672 22.3333V10.6667C0.666672 9.37167 1.71667 8.33333 3 8.33333H4.16667V6C4.16667 4.45291 4.78125 2.96917 5.87521 1.87521C6.96918 0.78125 8.45291 0.166668 10 0.166668C10.766 0.166668 11.5246 0.317552 12.2323 0.610704C12.9401 0.903857 13.5831 1.33354 14.1248 1.87521C14.6665 2.41689 15.0961 3.05995 15.3893 3.76768C15.6825 4.47541 15.8333 5.23396 15.8333 6V8.33333H17ZM10 2.5C9.07174 2.5 8.18151 2.86875 7.52513 3.52513C6.86875 4.18151 6.5 5.07174 6.5 6V8.33333H13.5V6C13.5 5.07174 13.1313 4.18151 12.4749 3.52513C11.8185 2.86875 10.9283 2.5 10 2.5Z" fill="#267FFF"/>
</svg>
